<mxfile host="app.diagrams.net" modified="2023-09-06T20:26:11.043Z" agent="Mozilla/5.0 (Windows NT 10.0; Win64; x64) AppleWebKit/537.36 (KHTML, like Gecko) Chrome/116.0.0.0 Safari/537.36 Avast/116.0.0.0" version="21.7.2" etag="s9XxTL6fuWZ-PhQY1T7x" type="github">
  <diagram name="Page-1" id="yefr-pGQcag6PhNDIxEQ">
    <mxGraphModel>
      <root>
        <mxCell id="0" />
        <mxCell id="1" parent="0" />
      </root>
    </mxGraphModel>
  </diagram>
</mxfile>
